<svg xmlns="http://www.w3.org/2000/svg" viewBox="0 0 400 200" fill="none" aria-hidden="true">
  <defs>
    <linearGradient id="hero-grad" x1="0%" y1="0%" x2="100%" y2="100%">
      <stop offset="0%" stop-color="var(--accent, #d05a2e)" stop-opacity="0.3"/>
      <stop offset="100%" stop-color="var(--accent-strong, #b2441e)" stop-opacity="0.1"/>
    </linearGradient>
  </defs>
  <rect x="40" y="50" width="80" height="100" rx="12" fill="var(--card-border, #e3d7c7)" opacity="0.6"/>
  <rect x="55" y="65" width="50" height="8" rx="4" fill="var(--muted, #6a5c4b)" opacity="0.5"/>
  <rect x="55" y="85" width="40" height="6" rx="3" fill="var(--muted, #6a5c4b)" opacity="0.4"/>
  <rect x="55" y="105" width="45" height="6" rx="3" fill="var(--muted, #6a5c4b)" opacity="0.4"/>
  <rect x="160" y="60" width="80" height="90" rx="12" fill="var(--card-border, #e3d7c7)" opacity="0.8"/>
  <rect x="175" y="75" width="50" height="8" rx="4" fill="var(--accent, #d05a2e)"/>
  <rect x="175" y="95" width="40" height="6" rx="3" fill="var(--muted, #6a5c4b)" opacity="0.5"/>
  <rect x="280" y="70" width="80" height="80" rx="12" fill="var(--card-border, #e3d7c7)" opacity="0.6"/>
  <circle cx="320" cy="110" r="25" fill="var(--accent, #d05a2e)" opacity="0.8"/>
  <path d="M310 110 L317 117 L332 102" stroke="white" stroke-width="4" fill="none" stroke-linecap="round" stroke-linejoin="round"/>
  <rect x="120" y="165" width="160" height="25" rx="6" fill="url(#hero-grad)"/>
  <text x="200" y="182" text-anchor="middle" font-family="system-ui, sans-serif" font-size="12" font-weight="600" fill="var(--ink, #1f1a12)">Learn Next.js</text>
</svg>
